<?xml version="1.0" encoding="utf-8"?>
<!-- Generator: Adobe Illustrator 24.1.2, SVG Export Plug-In . SVG Version: 6.00 Build 0)  -->
<svg version="1.1" id="Logo_1_" xmlns="http://www.w3.org/2000/svg" xmlns:xlink="http://www.w3.org/1999/xlink" x="0px" y="0px"
	 viewBox="0 0 889.48 226.77" style="enable-background:new 0 0 889.48 226.77;" xml:space="preserve">
<style type="text/css">
	.st0{fill:#3C3C3B;}
	.st1{fill:#008ACA;}
</style>
<g id="Logo_2_">
	<g id="Auto">
		<path class="st0" d="M606.54,73.66l10.77,92.08c0.15,1.77-0.15,2.07-1.77,2.07h-8.41c-1.03,0-1.33-0.44-1.48-1.92l-4.13-34.09
			h-46.48l-15.05,34.09c-0.74,1.48-0.88,1.92-1.92,1.92h-8.56c-1.48,0-1.77-0.44-1.18-2.07l40.73-92.08
			c6.64-14.9,9-16.97,21.1-16.97C603.44,56.69,604.77,58.76,606.54,73.66z M579.39,76.32l-19.92,45.45h41.02l-5.16-45.45
			c-1.03-8.56-1.18-9.74-6.79-9.74C583.81,66.58,583.08,67.76,579.39,76.32z"/>
		<path class="st0" d="M702.25,87.98c1.18,0,1.77,0.59,1.62,1.92l-11.95,74.67c-0.15,1.48-0.89,1.63-2.21,1.92
			c-11.8,2.06-23.17,2.06-30.1,2.06c-24.35,0-32.17-3.25-27.45-33.65l7.23-45.01c0.29-1.33,1.18-1.92,2.36-1.92h6.64
			c1.33,0,1.77,0.74,1.62,1.92l-7.08,44.86c-3.69,23.02,1.77,24.35,16.38,24.35h22.87L693.1,89.9c0.29-1.33,0.89-1.92,2.21-1.92
			H702.25z"/>
		<path class="st0" d="M742.37,65.7c1.48-0.44,2.07,0.15,1.77,1.62l-3.25,20.66h16.38c1.33,0,1.77,0.59,1.62,1.92l-0.88,5.17
			c-0.15,1.18-0.89,1.77-2.07,1.77h-16.38l-8.56,54.01c-1.03,6.64,0.44,8.26,8.26,8.26h7.97c1.33,0,1.92,0.44,1.77,1.77l-0.74,4.87
			c-0.3,1.18-1.03,1.77-2.21,2.07c-2.8,0.59-7.08,0.74-8.12,0.74c-10.18,0-20.36-0.74-18-15.49l8.85-56.22h-8.26
			c-1.33,0-1.92-0.59-1.77-1.77l1.03-5.17c0.15-1.33,0.89-1.92,2.07-1.92h8.41l2.95-18.74c0.15-1.03,0.89-1.63,1.92-1.92
			L742.37,65.7z"/>
		<path class="st0" d="M830.9,127.82c-5.17,32.61-12.1,40.73-39.4,40.73c-27.15,0-31.43-8.12-26.42-40.73
			c5.17-32.46,12.25-40.58,39.4-40.58S836.07,95.36,830.9,127.82z M775.86,127.82c-3.98,24.94-2.06,31.28,17.27,31.28
			c19.33,0,23.17-6.34,27.15-31.28c3.98-24.94,2.07-31.14-17.27-31.14C783.68,96.68,779.85,102.88,775.86,127.82z"/>
	</g>
	<g id="TTTech">
		<g>
			<g>
				<path class="st1" d="M148.14,84.22h-31.68l-17.66,83.6H70.73l17.65-83.6H56.69l4.83-24.14h91.44L148.14,84.22z"/>
			</g>
			<g>
				<polygon class="st1" points="138.55,167.81 166.62,167.81 184.27,84.22 215.96,84.22 220.79,60.07 161.77,60.07 				"/>
			</g>
			<g>
				<polygon class="st1" points="229.66,60.07 206.89,167.81 234.96,167.81 252.61,84.22 284.3,84.22 289.13,60.07 				"/>
			</g>
			<g>
				<path class="st1" d="M289.76,134.92c-0.15,1.51-0.31,2.72-0.31,5.28c0.76,8.14,5.43,12.52,13.89,12.52
					c8.75,0,12.97-3.32,14.93-8.6h25.05c-6.18,18.71-22.03,25.96-41.04,25.96c-21.73,0-37.58-11.02-37.58-34.1
					c0-27.77,18.26-48.74,46.63-48.74c20.21,0,35.76,11.62,35.76,34.26c0,4.67-0.3,9.05-0.9,13.43H289.76z M322.35,120.58
					c0.75-8.75-3.32-16-11.92-16c-10.56,0-16.14,6.19-18.86,16H322.35z"/>
			</g>
			<g>
				<path class="st1" d="M409.6,118.02c0.15-3.77-1.05-6.79-3.17-8.9c-1.96-1.97-4.68-2.87-8.3-3.02
					c-15.09-0.6-19.77,15.24-19.77,27.16c0,11.32,4.38,17.96,12.97,17.96c8.15,0,12.98-5.28,14.94-13.28h24.89
					c-4.67,22.33-20.22,32.14-40.89,32.14c-21.72,0-37.57-11.02-37.57-34.1c0-27.77,18.26-48.74,46.63-48.74
					c19.77,0,35.01,9.81,35.15,30.78H409.6z"/>
			</g>
			<g>
				<path class="st1" d="M455.03,60.07h25.65l-8.3,38.63l0.3,0.3c3.47-5.28,12.98-11.77,26.71-11.77c14.03,0,22.48,8.6,22.48,22.03
					c0,5.13-1.8,12.98-2.71,16.89l-9.35,41.65h-25.65l8.9-41.5c0.75-3.62,1.51-6.94,1.51-9.96c0-6.18-3.93-9.51-9.36-9.51
					c-15.85,0-17.66,14.94-20.38,27.77l-6.94,33.19h-25.65L455.03,60.07z"/>
			</g>
		</g>
	</g>
</g>
</svg>
